<svg xmlns="http://www.w3.org/2000/svg" viewBox="0 0 174.46 174.46"><defs><style>.cls-1{fill:none;}.cls-2{fill:#fff;}</style></defs><title>Big-Arrow</title><g id="Layer_2" data-name="Layer 2"><g id="Layer_1-2" data-name="Layer 1"><circle class="cls-1" cx="87.23" cy="87.23" r="87.23"/><path class="cls-2" d="M130.86,85.53c-4.23-1-7.08-1.84-8.55-4.31s-3.07-6.48-4.6-9.72h-2.48c1.41,4.08,2.55,7.53,3.42,10.32a7.16,7.16,0,0,0,4.23,4.37L42,84.81v4.84l80.86-1.37a7.14,7.14,0,0,0-4.23,4.36q-1.31,4.2-3.42,10.33h2.48c1.53-3.25,3.06-7.16,4.6-9.73s4.32-3.31,8.55-4.31a.66.66,0,0,0,.51-.63V86.17A.67.67,0,0,0,130.86,85.53Z"/></g></g></svg>