<svg xmlns="http://www.w3.org/2000/svg" viewBox="0 0 308.55 91.17"><defs><style>.cls-1{fill:#3e554c;}</style></defs><title>Footer-Logo-Foudamour</title><g id="Layer_2" data-name="Layer 2"><g id="Layer_1-2" data-name="Layer 1"><path class="cls-1" d="M154.26,91.17,138.44,80.78v-11l8.21-5.59,7.74,5,7.34-5,8.38,5.58v11L154.26,91.17ZM139.94,79.88l14.32,9.41,14.35-9.43V70.67l-6.87-4.57-7.32,5-7.74-5-6.74,4.58v9.17Z"/><path class="cls-1" d="M.35,26.32c-.23,0-.35-.13-.35-.38s.13-.3.38-.46L1,25.06a1.84,1.84,0,0,0,.61-.63,1.74,1.74,0,0,0,.18-.77V3.44a1.4,1.4,0,0,0-.91-1.5C.3,1.73,0,1.46,0,1.15A.34.34,0,0,1,.38.76H17.27V5.44a.33.33,0,0,1-.38.38c-.12,0-.34-.24-.67-.72a18,18,0,0,0-1.58-1.95,2.32,2.32,0,0,0-1.75-.69H5.11v9.88h7.05a1.74,1.74,0,0,0,1.35-.67,5,5,0,0,0,.53-.8c.13-.27.29-.4.49-.4s.36.12.36.38v4.62c0,.26-.12.38-.36.38s-.41-.15-.56-.46a3.87,3.87,0,0,0-.61-.9,1.64,1.64,0,0,0-1.2-.51h-7v9.68a1.62,1.62,0,0,0,.24.89,1.89,1.89,0,0,0,.55.54l.6.37q.42.25.42.48a.63.63,0,0,1,0,.16.39.39,0,0,1-.35.22Z"/><path class="cls-1" d="M40.07,0h.18a14.37,14.37,0,0,1,9.92,3.6,11.33,11.33,0,0,1,3.77,8.89c0,.32,0,.66,0,1q-.39,6.26-4.35,9.71A15.35,15.35,0,0,1,40,27H39.2a13,13,0,0,1-9-3.49,11.91,11.91,0,0,1-4-9.34c0-.22,0-.43,0-.65a13.55,13.55,0,0,1,4-9.81A13.89,13.89,0,0,1,40.07,0Zm0,1.6c-3.72,0-6.33,1.19-7.81,3.52A15.43,15.43,0,0,0,30,13.54,13,13,0,0,0,32.83,22a8.92,8.92,0,0,0,7.24,3.52h.09a8.62,8.62,0,0,0,7.16-3.71,13.22,13.22,0,0,0,2.76-8.12v-.11a15.36,15.36,0,0,0-2.36-8.23c-1.56-2.47-4.1-3.71-7.65-3.71Z"/><path class="cls-1" d="M66.38,15.62V3.42a1.39,1.39,0,0,0-.91-1.48c-.6-.21-.91-.48-.91-.79A.34.34,0,0,1,65,.76h6.17q.36,0,.36.39c0,.31-.3.57-.89.77a1.36,1.36,0,0,0-.89,1.47V13.2c0,1.85.06,3.5.18,4.93a9.55,9.55,0,0,0,1,3.62A4.93,4.93,0,0,0,73.12,24a9.82,9.82,0,0,0,4.28.76q4.8,0,6.51-3.78a19.19,19.19,0,0,0,1.22-7.77V3.44A1.4,1.4,0,0,0,84.22,2c-.6-.22-.91-.49-.91-.8a.34.34,0,0,1,.38-.39h4.65q.36,0,.36.39c0,.31-.3.58-.9.8a1.4,1.4,0,0,0-.9,1.49V15.62a24.49,24.49,0,0,1-.5,5,8.48,8.48,0,0,1-1.78,3.77Q82.31,27,77.4,27a20.77,20.77,0,0,1-5.3-.58,6.78,6.78,0,0,1-3.49-2.11c-1.49-1.72-2.23-4.62-2.23-8.72Z"/><path class="cls-1" d="M125.17,11.92q0,.6,0,1.17a12.78,12.78,0,0,1-1.11,5.42,12.42,12.42,0,0,1-3.75,4.73,16.15,16.15,0,0,1-9.93,3.21H109l-2,0h-2.13c-1,0-1.77,0-2.3-.06h-.43c-.49,0-1.12,0-1.9.11-.25,0-.38-.13-.38-.4s.31-.56.91-.78a1.42,1.42,0,0,0,.91-1.51V3.35a1.38,1.38,0,0,0-.91-1.48c-.6-.22-.91-.48-.91-.8a.34.34,0,0,1,.38-.38l1.55,0,1.57,0,3-.09h1.08c1.85,0,3.72.05,5.6.15a17.9,17.9,0,0,1,6,1.34,10.08,10.08,0,0,1,4.17,3.42,12.26,12.26,0,0,1,1.93,6.41Zm-20-9.5V24.5a23.65,23.65,0,0,0,4.33.42c.53,0,1.06,0,1.57-.06A12.57,12.57,0,0,0,116,23.52a9.57,9.57,0,0,0,4-4.12,13.78,13.78,0,0,0,1.35-6.48v-.6a11.92,11.92,0,0,0-1-4.94,8.62,8.62,0,0,0-2.58-3.19A11,11,0,0,0,112,2.13c-.77-.06-1.54-.09-2.32-.09a29,29,0,0,0-4.58.38Z"/><path class="cls-1" d="M148.16.35q.9,2.15,2.25,5.26c.89,2.07,1.81,4.21,2.76,6.4s1.88,4.33,2.77,6.41,1.65,3.82,2.26,5.24a2.8,2.8,0,0,0,1.08,1.22,5.73,5.73,0,0,0,.83.46,4.94,4.94,0,0,1,.66.34.71.71,0,0,1,.24.26.35.35,0,0,1,0,.14.35.35,0,0,1,0,.13.23.23,0,0,1-.22.11h-6.15a.62.62,0,0,1-.33-.11.54.54,0,0,1-.22-.27.3.3,0,0,1,0-.11.51.51,0,0,1,.22-.35,5,5,0,0,1,.4-.34,1.06,1.06,0,0,0,.35-.5.8.8,0,0,0,0-.32,1.8,1.8,0,0,0-.14-.68l-2.7-6.22H141.62l-1.3,3.12c-.43,1-.86,2.07-1.3,3.1a1.88,1.88,0,0,0-.18.66,2.11,2.11,0,0,0,0,.25,1.29,1.29,0,0,0,.05.35.89.89,0,0,0,.19.39,1.14,1.14,0,0,1,.18.32c0,.1,0,.16,0,.2a.38.38,0,0,1,0,.13c-.08.25-.22.38-.4.38h-4.7a.28.28,0,0,1-.25-.11.25.25,0,0,0,0-.09.65.65,0,0,1,0-.18,1.22,1.22,0,0,1,.62-.48l.59-.28a6.25,6.25,0,0,0,.65-.37,3,3,0,0,0,1-1.15L147,.35Zm3.44,15.59L146.85,4.86l-2.32,5.55-2.31,5.53Z"/><path class="cls-1" d="M199.93,3.44V23.66a1.4,1.4,0,0,0,.91,1.5c.62.22.92.47.92.78a.33.33,0,0,1-.38.38h-6.17a.34.34,0,0,1-.38-.38c0-.31.3-.56.91-.78a1.4,1.4,0,0,0,.91-1.5V4.17l-10.5,22.7h-.71L175,5V23.66a1.41,1.41,0,0,0,.91,1.5c.61.22.91.47.91.78a.33.33,0,0,1-.38.38h-4.62a.33.33,0,0,1-.38-.38c0-.31.3-.56.91-.78a1.41,1.41,0,0,0,.91-1.5V3.44A1.41,1.41,0,0,0,172.39,2c-.61-.22-.91-.49-.91-.8s.12-.39.38-.39h4.84l10,20.43L196.3.76h5.08c.26,0,.38.13.38.39s-.3.58-.92.8a1.4,1.4,0,0,0-.91,1.49Z"/><path class="cls-1" d="M225.93,0h.18A14.37,14.37,0,0,1,236,3.6a11.36,11.36,0,0,1,3.77,8.89c0,.32,0,.66,0,1q-.37,6.26-4.34,9.71A15.41,15.41,0,0,1,225.89,27h-.84a13,13,0,0,1-9-3.49,11.92,11.92,0,0,1-4-9.34c0-.22,0-.43,0-.65q.22-6.21,4-9.81A13.87,13.87,0,0,1,225.93,0Zm0,1.6c-3.73,0-6.33,1.19-7.81,3.52a15.43,15.43,0,0,0-2.22,8.42A13.09,13.09,0,0,0,218.68,22a9,9,0,0,0,7.25,3.52H226a8.61,8.61,0,0,0,7.15-3.71,13.17,13.17,0,0,0,2.77-8.12v-.11a15.29,15.29,0,0,0-2.37-8.23q-2.32-3.7-7.64-3.71Z"/><path class="cls-1" d="M252.24,15.62V3.42a1.39,1.39,0,0,0-.91-1.48c-.61-.21-.91-.48-.91-.79a.34.34,0,0,1,.38-.39H257c.25,0,.37.13.37.39s-.3.57-.9.77a1.37,1.37,0,0,0-.89,1.47V13.2c0,1.85.06,3.5.18,4.93a9.74,9.74,0,0,0,1,3.62A5,5,0,0,0,259,24a9.77,9.77,0,0,0,4.27.76q4.81,0,6.52-3.78A19.36,19.36,0,0,0,271,13.2V3.44A1.4,1.4,0,0,0,270.08,2c-.61-.22-.91-.49-.91-.8s.12-.39.38-.39h4.64c.24,0,.37.13.37.39s-.3.58-.91.8a1.4,1.4,0,0,0-.9,1.49V15.62a24.49,24.49,0,0,1-.5,5,8.46,8.46,0,0,1-1.77,3.77Q268.17,27,263.25,27a20.69,20.69,0,0,1-5.29-.58,6.85,6.85,0,0,1-3.5-2.11c-1.48-1.72-2.22-4.62-2.22-8.72Z"/><path class="cls-1" d="M306.71,25a2.37,2.37,0,0,0,1.33.49c.34,0,.51.16.51.38v.06c0,.25-.17.38-.38.38h-4.86c-.11,0-.52-.47-1.24-1.42s-1.55-2.08-2.5-3.39-1.91-2.65-2.91-4-1.82-2.47-2.49-3.31h-2.91v9.48a1.4,1.4,0,0,0,.91,1.5c.6.22.91.47.91.78a.33.33,0,0,1-.37.38h-6.17a.34.34,0,0,1-.38-.38c0-.31.3-.56.91-.78a1.4,1.4,0,0,0,.91-1.5V3.44A1.4,1.4,0,0,0,287.07,2c-.61-.22-.91-.49-.91-.8a.34.34,0,0,1,.38-.39h10.74a12.76,12.76,0,0,1,3.92.67A5.53,5.53,0,0,1,304.34,4a7.39,7.39,0,0,1,.88,3.72A6.55,6.55,0,0,1,304,11.41a5.77,5.77,0,0,1-2.54,2,9.54,9.54,0,0,1-3.07.77L306.71,25ZM291.26,2.28V12.9h4.22a9.46,9.46,0,0,0,2.55-.36,5,5,0,0,0,2.22-1.29,4.93,4.93,0,0,0,1.46-3.71,5,5,0,0,0-1.52-3.72,6,6,0,0,0-4.35-1.54Z"/><path class="cls-1" d="M81.8,50.41a41.87,41.87,0,0,1-2-4,3.86,3.86,0,0,0,1.61-1.27A3.5,3.5,0,0,0,82,43.05a2.15,2.15,0,0,0-.8-1.85,3.41,3.41,0,0,0-2.11-.6l-2.07.15c-.37,0-1,0-1.77-.11a1.37,1.37,0,0,0-.16.66l1.13.27c-.2,3.38-.42,6.18-.69,8.41a2.75,2.75,0,0,1-1,.55,1.44,1.44,0,0,0-.15.65l1.44-.11c.38,0,1.08,0,2.13.11a1.44,1.44,0,0,0,.15-.65l-1.25-.23.2-3.49h.59a5.38,5.38,0,0,0,1-.08q1.13,2.3,1.94,4.42c.66,0,1.41,0,2.26.11A1.49,1.49,0,0,0,83,50.6l-1.18-.19Zm-1.53-5.26a2.69,2.69,0,0,1-1.61.88H77.11c.09-1.22.23-2.7.44-4.44h2a1.44,1.44,0,0,1,1,.7,2.41,2.41,0,0,1,.34,1.22,2.48,2.48,0,0,1-.59,1.64Zm6.06,4.44a2.41,2.41,0,0,1-.4-1.56,4.32,4.32,0,0,1,.48-2,2.3,2.3,0,0,1,1.13-1.17H89l.13,0a1.46,1.46,0,0,1,.66.52,2.59,2.59,0,0,1,.43,1.7A4,4,0,0,1,89.72,49a2.28,2.28,0,0,1-1.12,1.17H87.14l-.12,0a1.62,1.62,0,0,1-.69-.54Zm5-3c0-1.88-.87-2.82-2.6-2.82a3.33,3.33,0,0,0-2.18.74,4.57,4.57,0,0,0-1.35,1.78,5.32,5.32,0,0,0-.43,2.09c0,1.88.86,2.83,2.59,2.83a3.34,3.34,0,0,0,2.18-.75,4.35,4.35,0,0,0,1.35-1.77,5.38,5.38,0,0,0,.44-2.1Zm9.49,0-.16-.1c.13-1.17.19-1.89.2-2.17l0-.15a.8.8,0,0,0-.4-.3,2.2,2.2,0,0,0-.89-.15c-1.29,0-2.35,1-3.19,2.87l-.15-.1.28-2.17a.72.72,0,0,0-.16-.49.49.49,0,0,0-.38-.19,6.4,6.4,0,0,1-1.69.49,1.44,1.44,0,0,0-.15.65h1.11c-.09,1.8-.2,3.16-.32,4.07a21.56,21.56,0,0,1-.43,2.38,4.59,4.59,0,0,0,1.43-.23c.13-.87.25-1.93.35-3.18a10,10,0,0,1,1.21-2.12c.46-.61.89-.92,1.28-.92h.93a45.77,45.77,0,0,1-.52,5c0,.32-.14.81-.3,1.49a4.57,4.57,0,0,0,1.42-.23c.06-.42.15-1.38.26-2.87a13.47,13.47,0,0,1,1.37-2.29c.52-.71,1-1.06,1.32-1.06h.93q-.25,3.65-.58,5.77a.69.69,0,0,0,.16.51.47.47,0,0,0,.38.17,6.45,6.45,0,0,1,1.84-.48,1.49,1.49,0,0,0,.15-.66h-1.21q.12-2.83.47-5.77l-.06-.15c0-.1-.16-.2-.38-.3a2.22,2.22,0,0,0-.9-.15c-1.28,0-2.34,1-3.18,2.87Zm14.08,3.5c.13-1.82.25-3.18.38-4.08a24.11,24.11,0,0,1,.47-2.52,4.79,4.79,0,0,0-1.44.23c0,.11,0,.25-.06.44a2.42,2.42,0,0,0-1.27-.44,3.57,3.57,0,0,0-2.9,1.45,5.31,5.31,0,0,0-1.17,3.42,2.66,2.66,0,0,0,.63,1.87,2.06,2.06,0,0,0,1.58.7,1.8,1.8,0,0,0,1.52-.76,9,9,0,0,0,1.14-2.11l.15.09-.29,2.17a.74.74,0,0,0,.16.51.5.5,0,0,0,.39.17,6.45,6.45,0,0,1,1.84-.48,1.49,1.49,0,0,0,.15-.66ZM110.62,46c.36-.72.74-1.11,1.13-1.18h2.43c-.12,1-.2,1.7-.24,2.12-.84,2-1.56,3.08-2.14,3.19h-.73a1.66,1.66,0,0,1-.69-.72,2.44,2.44,0,0,1-.3-1.21,4.83,4.83,0,0,1,.54-2.2Zm9.6-1.18c-.09,1.8-.2,3.16-.32,4.07s-.26,1.7-.42,2.38a4.68,4.68,0,0,0,1.43-.23c.13-.87.24-1.93.34-3.18a8.44,8.44,0,0,1,1.36-2.09c.55-.63,1-.95,1.44-.95H125q-.24,3.65-.57,5.77a.69.69,0,0,0,.16.51.47.47,0,0,0,.38.17,6.45,6.45,0,0,1,1.84-.48,1.49,1.49,0,0,0,.15-.66h-1.21q.12-2.83.47-5.77l0-.15a.72.72,0,0,0-.39-.3,2.22,2.22,0,0,0-.9-.15,2.94,2.94,0,0,0-2.09.89,6.14,6.14,0,0,0-1.4,2l-.15-.1.29-2.17a.73.73,0,0,0-.17-.49.49.49,0,0,0-.38-.19,6.44,6.44,0,0,1-1.68.49,1.33,1.33,0,0,0-.16.65Zm11.72,5.31-.12,0a1.51,1.51,0,0,1-.7-.51,2.65,2.65,0,0,1-.44-1.7,4.13,4.13,0,0,1,.47-1.92,2.18,2.18,0,0,1,1.08-1.15h1.59a.37.37,0,0,1,.23.39,4.58,4.58,0,0,1-.13.92,1.81,1.81,0,0,0,.74-.14l.08-.26a5.45,5.45,0,0,1,.51-1.37,2.88,2.88,0,0,0-.69-.39,2.59,2.59,0,0,0-1.05-.21,3.38,3.38,0,0,0-2.13.71A4.3,4.3,0,0,0,130,46.25a5.73,5.73,0,0,0-.45,2.33,2.71,2.71,0,0,0,.66,2,2.63,2.63,0,0,0,2,.68,11,11,0,0,0,2.3-.41,1.49,1.49,0,0,0,.15-.66Zm8.41,0c-.83-.11-1.24-.86-1.24-2.24,2.85-.06,4.28-1,4.28-2.83a1.32,1.32,0,0,0-.35-.92,1.39,1.39,0,0,0-1.09-.38,3.33,3.33,0,0,0-2.12.73,4.6,4.6,0,0,0-1.39,1.78,5.23,5.23,0,0,0-.46,2.09c0,1.89.87,2.84,2.62,2.84a11,11,0,0,0,2.3-.41,1.49,1.49,0,0,0,.16-.66Zm1.26-3.42a5.19,5.19,0,0,1-2.46.51,4.58,4.58,0,0,1,.49-1.53,1.76,1.76,0,0,1,.86-.87h1.4a.58.58,0,0,1,.43.62,1.41,1.41,0,0,1-.72,1.27Zm8.16,3.5h-1.58c-.58-.12-.87-.36-.87-.71a3.39,3.39,0,0,1,.14-.87,1.86,1.86,0,0,0-.75.14l0,.19a4.52,4.52,0,0,1-.49,1.25l.17.24a1.82,1.82,0,0,0,.74.5,3.49,3.49,0,0,0,1.37.25,3.15,3.15,0,0,0,2.09-.65,2.24,2.24,0,0,0,.78-1.83A1.14,1.14,0,0,0,151,48a3.32,3.32,0,0,0-.64-.58l-.8-.45c-.32-.16-.56-.29-.74-.4a2.7,2.7,0,0,1-.51-.42.78.78,0,0,1-.26-.53.77.77,0,0,1,.73-.85h1.47c.22.07.34.27.34.6a5.66,5.66,0,0,1-.14.79,1.81,1.81,0,0,0,.74-.14l.06-.23a6,6,0,0,1,.53-1.4,3.57,3.57,0,0,0-2-.6,3.18,3.18,0,0,0-1.88.54,1.77,1.77,0,0,0-.77,1.55,1.43,1.43,0,0,0,.52,1.14,4.23,4.23,0,0,0,.48.36,6,6,0,0,0,.54.32c.24.12.49.26.74.41l.27.18a1.84,1.84,0,0,1,.29.21l.23.26a.69.69,0,0,1,.15.46,1.1,1.1,0,0,1-.57,1Zm16.32-3.58-.16-.1c.13-1.17.19-1.89.2-2.17l0-.15a.8.8,0,0,0-.4-.3,2.22,2.22,0,0,0-.9-.15c-1.28,0-2.34,1-3.18,2.87l-.15-.1.28-2.17a.72.72,0,0,0-.16-.49.5.5,0,0,0-.38-.19,6.4,6.4,0,0,1-1.69.49,1.44,1.44,0,0,0-.15.65h1.11c-.09,1.8-.2,3.16-.32,4.07a21.56,21.56,0,0,1-.43,2.38,4.59,4.59,0,0,0,1.43-.23c.13-.87.25-1.93.35-3.18a10,10,0,0,1,1.21-2.12c.46-.61.89-.92,1.28-.92h.93a45.77,45.77,0,0,1-.52,5c0,.32-.14.81-.3,1.49a4.57,4.57,0,0,0,1.42-.23c.06-.42.15-1.38.26-2.87a13.47,13.47,0,0,1,1.37-2.29c.52-.71,1-1.06,1.32-1.06h.92q-.24,3.65-.57,5.77a.69.69,0,0,0,.16.51.47.47,0,0,0,.38.17,6.45,6.45,0,0,1,1.84-.48,1.49,1.49,0,0,0,.15-.66h-1.21q.12-2.83.47-5.77l-.06-.15c0-.1-.16-.2-.38-.3a2.22,2.22,0,0,0-.9-.15c-1.28,0-2.34,1-3.18,2.87Zm9.64,2.93a2.41,2.41,0,0,1-.4-1.56,4.21,4.21,0,0,1,.49-2,2.28,2.28,0,0,1,1.12-1.17h1.46l.12,0a1.53,1.53,0,0,1,.67.52,2.66,2.66,0,0,1,.42,1.7,4,4,0,0,1-.48,1.89A2.3,2.3,0,0,1,178,50.16h-1.45l-.13,0a1.62,1.62,0,0,1-.69-.54Zm5-3c0-1.88-.86-2.82-2.6-2.82a3.3,3.3,0,0,0-2.17.74,4.5,4.5,0,0,0-1.36,1.78,5.5,5.5,0,0,0-.43,2.09c0,1.88.87,2.83,2.6,2.83a3.36,3.36,0,0,0,2.18-.75,4.54,4.54,0,0,0,1.35-1.77,5.37,5.37,0,0,0,.43-2.1Zm8.47,3.55c.26-4.11.56-7.57.9-10.4a.73.73,0,0,0-.17-.49.49.49,0,0,0-.38-.19,6.44,6.44,0,0,1-1.68.49,1.33,1.33,0,0,0-.16.65h1.17c-.05,1.21-.15,2.56-.3,4a2.58,2.58,0,0,0-1.32-.47,3.57,3.57,0,0,0-2.9,1.45,5.31,5.31,0,0,0-1.17,3.42,2.62,2.62,0,0,0,.64,1.87,2,2,0,0,0,1.58.7,1.8,1.8,0,0,0,1.51-.76,9,9,0,0,0,1.14-2.11l.15.09L188,50.62a.69.69,0,0,0,.16.51.47.47,0,0,0,.38.17,6.45,6.45,0,0,1,1.84-.48,1.49,1.49,0,0,0,.15-.66ZM184.9,46c.36-.72.74-1.11,1.13-1.18h2.49c-.14,1.23-.21,1.89-.22,2-.86,2.11-1.6,3.22-2.22,3.34h-.73a1.65,1.65,0,0,1-.68-.72,2.34,2.34,0,0,1-.31-1.21,4.83,4.83,0,0,1,.54-2.2Zm10.8,4.13c-.83-.11-1.24-.86-1.24-2.24,2.85-.06,4.28-1,4.28-2.83a1.32,1.32,0,0,0-.35-.92,1.39,1.39,0,0,0-1.09-.38,3.33,3.33,0,0,0-2.12.73,4.6,4.6,0,0,0-1.39,1.78,5.21,5.21,0,0,0-.45,2.09c0,1.89.87,2.84,2.61,2.84a11,11,0,0,0,2.3-.41,1.37,1.37,0,0,0,.16-.66ZM197,46.74a5.19,5.19,0,0,1-2.46.51,4.82,4.82,0,0,1,.49-1.53,1.74,1.74,0,0,1,.87-.87h1.39a.57.57,0,0,1,.43.62,1.41,1.41,0,0,1-.72,1.27Zm5.62-1.89c-.09,1.8-.2,3.16-.32,4.07s-.26,1.7-.42,2.38a4.57,4.57,0,0,0,1.42-.23c.13-.83.25-2,.38-3.52a8.68,8.68,0,0,1,1.17-1.84c.48-.57.83-.86,1.05-.86s.29.23.29.52a5.66,5.66,0,0,1-.14.79,1.86,1.86,0,0,0,.75-.14l.07-.26a5.78,5.78,0,0,1,.58-1.49l-.09-.12a.93.93,0,0,0-.33-.24,1.14,1.14,0,0,0-.52-.12,2.21,2.21,0,0,0-1.54.82,5.94,5.94,0,0,0-1.18,1.7l-.15-.09.26-1.83a.73.73,0,0,0-.17-.49.49.49,0,0,0-.38-.19,6.4,6.4,0,0,1-1.69.49,1.44,1.44,0,0,0-.15.65Zm8.17,0c-.09,1.8-.2,3.16-.32,4.07s-.26,1.7-.42,2.38a4.57,4.57,0,0,0,1.42-.23c.13-.87.25-1.93.35-3.18a8.7,8.7,0,0,1,1.35-2.09c.56-.63,1-.95,1.44-.95h.93q-.24,3.65-.58,5.77a.74.74,0,0,0,.16.51.5.5,0,0,0,.39.17,6.45,6.45,0,0,1,1.84-.48,1.49,1.49,0,0,0,.15-.66h-1.21c.07-1.89.23-3.81.46-5.77l0-.15c0-.1-.17-.2-.4-.3a2.2,2.2,0,0,0-.89-.15,3,3,0,0,0-2.1.89,6.26,6.26,0,0,0-1.39,2l-.15-.1.28-2.17a.72.72,0,0,0-.16-.49.49.49,0,0,0-.38-.19,6.4,6.4,0,0,1-1.69.49,1.44,1.44,0,0,0-.15.65Zm12,5.31c-.83-.11-1.25-.86-1.25-2.24,2.86-.06,4.28-1,4.28-2.83a1.28,1.28,0,0,0-.35-.92,1.38,1.38,0,0,0-1.09-.38,3.35,3.35,0,0,0-2.12.73,4.57,4.57,0,0,0-1.38,1.78,5.06,5.06,0,0,0-.46,2.09c0,1.89.87,2.84,2.61,2.84a11,11,0,0,0,2.31-.41,1.49,1.49,0,0,0,.15-.66ZM224,46.74a5.26,5.26,0,0,1-2.46.51,4.58,4.58,0,0,1,.48-1.53,1.82,1.82,0,0,1,.87-.87h1.4a.57.57,0,0,1,.42.62,1.43,1.43,0,0,1-.71,1.27Zm8.15,3.5h-1.58c-.58-.12-.86-.36-.86-.71a3.34,3.34,0,0,1,.13-.87,1.81,1.81,0,0,0-.74.14L229,49a4.5,4.5,0,0,1-.48,1.25l.16.24a1.9,1.9,0,0,0,.74.5,3.53,3.53,0,0,0,1.37.25,3.2,3.2,0,0,0,2.1-.65,2.23,2.23,0,0,0,.77-1.83,1.18,1.18,0,0,0-.32-.75,3.09,3.09,0,0,0-.65-.58c-.21-.13-.48-.28-.8-.45s-.56-.29-.73-.4a2.74,2.74,0,0,1-.52-.42.79.79,0,0,1,.47-1.38h1.47c.23.07.34.27.34.6a5.66,5.66,0,0,1-.14.79,1.86,1.86,0,0,0,.75-.14l.06-.23a6,6,0,0,1,.53-1.4,3.6,3.6,0,0,0-2-.6,3.15,3.15,0,0,0-1.87.54,1.74,1.74,0,0,0-.77,1.55A1.4,1.4,0,0,0,230,47a4.26,4.26,0,0,0,.47.36c.13.09.31.19.55.32s.48.26.73.41l.28.18a2.22,2.22,0,0,1,.28.21l.23.26a.65.65,0,0,1,.16.46,1.11,1.11,0,0,1-.58,1Z"/></g></g></svg>