<svg xmlns="http://www.w3.org/2000/svg" viewBox="0 0 1719.73 147.53"><defs><style>.cls-1{fill:#f0f3f1;}</style></defs><title>BG Logo</title><g id="Layer_2" data-name="Layer 2"><g id="Layer_1-2" data-name="Layer 1"><path class="cls-1" d="M1.93,143.65C.64,143.65,0,143,0,141.57q0-1.2,2.13-2.49c1-.66,2.22-1.42,3.6-2.28a10.21,10.21,0,0,0,3.4-3.48,9,9,0,0,0,1-4.17V18.78q0-6.46-5.07-8.2T0,6.26A1.87,1.87,0,0,1,2.13,4.17H96.27V29.71a1.86,1.86,0,0,1-2.13,2.08q-1,0-3.75-4a103.92,103.92,0,0,0-8.77-10.63,13.1,13.1,0,0,0-9.79-3.78H28.51v54H67.78a9.8,9.8,0,0,0,7.51-3.68,23.26,23.26,0,0,0,2.94-4.37c.75-1.46,1.66-2.19,2.74-2.19a1.82,1.82,0,0,1,2,2.09V84.44a1.82,1.82,0,0,1-2,2.09c-1.22,0-2.25-.84-3.09-2.53a22.75,22.75,0,0,0-3.4-4.92,9.25,9.25,0,0,0-6.7-2.78H28.51v52.85A8.93,8.93,0,0,0,29.83,134a10.11,10.11,0,0,0,3,2.93c1.22.76,2.33,1.44,3.35,2,1.55.93,2.33,1.79,2.33,2.59a2.9,2.9,0,0,1-.1.89,2.15,2.15,0,0,1-1.93,1.19Z"/><path class="cls-1" d="M223.35,0h1q32.77,0,55.29,19.67,21,18.38,21,48.48c0,1.79-.07,3.61-.2,5.47q-2.13,34.17-24.2,53t-53.11,20.51c-1.55.07-3.11.1-4.66.1q-28.2,0-49.92-19.07-22.31-19.48-22.31-51c0-1.19,0-2.38.1-3.57q1.22-33.89,22.37-53.55T223.35,0Zm0,8.74Q192.2,8.85,179.83,28T167.45,73.91q0,26.93,15.52,46t40.38,19.22h.5q24.26,0,39.87-20.26,15.42-20.07,15.42-44.31v-.6A82.67,82.67,0,0,0,266,29Q253,8.74,223.35,8.74Z"/><path class="cls-1" d="M370,85.24V18.68q0-6.36-5.07-8.1t-5.07-4.32A1.87,1.87,0,0,1,362,4.17h34.39a1.82,1.82,0,0,1,2,2.09q0,2.58-5,4.22t-5,8V72q0,15.19,1,26.92t5.28,19.77a27.29,27.29,0,0,0,12.78,12.22q8.63,4.17,23.84,4.17,26.78,0,36.32-20.66,6.8-14.51,6.79-42.42V18.78q0-6.36-5.07-8.15t-5.07-4.37a1.87,1.87,0,0,1,2.13-2.09h25.87a1.82,1.82,0,0,1,2,2.09c0,1.72-1.68,3.18-5,4.37s-5,3.91-5,8.15V85.24a130.49,130.49,0,0,1-2.78,27.07,46,46,0,0,1-9.9,20.61q-12.88,14.61-40.27,14.61-17.36,0-29.52-3.18t-19.48-11.53Q370,118.82,370,85.24Z"/><path class="cls-1" d="M697.64,65.07q.2,3.29.2,6.36a68.46,68.46,0,0,1-6.19,29.6,69.22,69.22,0,0,1-20.9,25.83Q648,143.95,615.36,144.35h-8.11c-3.93,0-7.61,0-11.06-.1H584.32q-8.42,0-12.78-.3H569.1q-4.05,0-10.55.6a1.91,1.91,0,0,1-2.13-2.19c0-1.65,1.69-3.08,5.08-4.27s5.07-3.94,5.07-8.25V18.28q0-6.36-5.07-8.1t-5.08-4.32a1.86,1.86,0,0,1,2.13-2.08c2.84.06,5.72.1,8.63.1s5.74,0,8.72-.1q8.73-.3,17-.5h6q15.52,0,31.24.79a101.21,101.21,0,0,1,33.48,7.36,55.91,55.91,0,0,1,23.23,18.62q9.24,12.57,10.76,35ZM585.94,13.21V133.72A135.51,135.51,0,0,0,610.09,136q4.45,0,8.72-.29a71.56,71.56,0,0,0,27.5-7.36,52.89,52.89,0,0,0,22.52-22.45q7.5-13.91,7.5-35.36V67.26q-.41-16.1-5.83-27a47.47,47.47,0,0,0-14.35-17.43q-13.1-9.54-31.76-11.23-6.39-.49-12.88-.49a162.46,162.46,0,0,0-25.57,2.08Z"/><path class="cls-1" d="M825.77,1.89q5.07,11.72,12.53,28.71t15.42,35q8,18,15.42,35t12.63,28.61a15.29,15.29,0,0,0,6,6.65,32.78,32.78,0,0,0,4.62,2.49,27.12,27.12,0,0,1,3.7,1.89,3.46,3.46,0,0,1,1.32,1.39,1.67,1.67,0,0,1,.21.79,1.56,1.56,0,0,1-.21.7,1.24,1.24,0,0,1-1.22.59H861.88a3.38,3.38,0,0,1-1.82-.59,2.76,2.76,0,0,1-1.22-1.49,1.1,1.1,0,0,1-.2-.6,2.65,2.65,0,0,1,1.22-1.89,25,25,0,0,1,2.23-1.89,5.66,5.66,0,0,0,1.93-2.68,5,5,0,0,0,.3-1.79,9.78,9.78,0,0,0-.81-3.67l-15-34H789.35q-3.65,8.55-7.25,17t-7.26,16.94a10.29,10.29,0,0,0-1,3.58,9.19,9.19,0,0,0-.1,1.39,5.83,5.83,0,0,0,.3,1.88,4.91,4.91,0,0,0,1,2.14,5.36,5.36,0,0,1,1,1.74,9.57,9.57,0,0,1,.1,1.09,1.67,1.67,0,0,1-.2.7c-.47,1.39-1.22,2.08-2.23,2.08H747.55a1.62,1.62,0,0,1-1.42-.59,1.48,1.48,0,0,0-.2-.5,6.38,6.38,0,0,1,.2-1c.41-.86,1.56-1.73,3.45-2.59,1-.46,2.12-1,3.3-1.54a31.52,31.52,0,0,0,3.6-2,15.68,15.68,0,0,0,5.48-6.26L819.48,1.89ZM844.94,87l-26.47-60.5-12.94,30.3Q799.1,71.92,792.7,87Z"/><path class="cls-1" d="M1114.31,18.78V129.15c0,4.3,1.7,7,5.12,8.19s5.12,2.57,5.12,4.23a1.86,1.86,0,0,1-2.13,2.08H1088a1.86,1.86,0,0,1-2.13-2.08q0-2.49,5.07-4.23c3.38-1.15,5.08-3.89,5.08-8.19V22.75l-58.54,123.88h-4L975.63,27.42V129.15c0,4.3,1.69,7,5.07,8.19s5.07,2.57,5.07,4.23a1.86,1.86,0,0,1-2.13,2.08H957.87a1.86,1.86,0,0,1-2.13-2.08q0-2.49,5.08-4.23c3.38-1.15,5.07-3.89,5.07-8.19V18.78q0-6.36-5.07-8.15t-5.08-4.37a1.87,1.87,0,0,1,2.13-2.09h27l55.49,111.47L1094.12,4.17h28.3a1.87,1.87,0,0,1,2.13,2.09c0,1.72-1.7,3.18-5.12,4.37s-5.12,3.91-5.12,8.15Z"/><path class="cls-1" d="M1259.24,0h1q32.76,0,55.29,19.67,21,18.38,21,48.48c0,1.79-.07,3.61-.21,5.47q-2.13,34.17-24.19,53T1259,147.13c-1.55.07-3.11.1-4.67.1q-28.2,0-49.91-19.07-22.31-19.48-22.32-51c0-1.19,0-2.38.1-3.57q1.23-33.89,22.37-53.55T1259.24,0Zm0,8.74q-31.15.11-43.53,19.23t-12.38,45.94q0,26.93,15.53,46t40.38,19.22h.5q24.26,0,39.87-20.26Q1315,98.75,1315,74.51v-.6A82.67,82.67,0,0,0,1301.84,29q-13-20.22-42.6-20.22Z"/><path class="cls-1" d="M1405.89,85.24V18.68q0-6.36-5.08-8.1c-3.38-1.16-5.06-2.6-5.06-4.32a1.86,1.86,0,0,1,2.12-2.09h34.39a1.83,1.83,0,0,1,2,2.09q0,2.58-5,4.22c-3.32,1.09-5,3.76-5,8V72q0,15.19,1,26.92t5.28,19.77a27.36,27.36,0,0,0,12.79,12.22q8.61,4.17,23.83,4.17,26.81,0,36.32-20.66,6.81-14.51,6.8-42.42V18.78c0-4.24-1.68-7-5.08-8.15s-5.06-2.65-5.06-4.37a1.86,1.86,0,0,1,2.12-2.09h25.87a1.83,1.83,0,0,1,2,2.09c0,1.72-1.67,3.18-5,4.37s-5,3.91-5,8.15V85.24a131.81,131.81,0,0,1-2.8,27.07,46,46,0,0,1-9.89,20.61q-12.88,14.61-40.28,14.61-17.34,0-29.51-3.18t-19.49-11.53q-12.37-14-12.37-47.58Z"/><path class="cls-1" d="M1709.48,136.5a13.41,13.41,0,0,0,7.41,2.68c1.9.2,2.84.9,2.84,2.09v.3c-.2,1.39-.92,2.08-2.13,2.08h-27.09c-.61,0-2.9-2.58-6.9-7.75s-8.62-11.32-13.9-18.47-10.69-14.48-16.23-22S1643.31,82,1639.59,77.39h-16.23v51.76c0,4.3,1.68,7,5.06,8.19s5.08,2.57,5.08,4.23a1.82,1.82,0,0,1-2,2.08h-34.4a1.85,1.85,0,0,1-2.12-2.08c0-1.66,1.68-3.07,5.06-4.23s5.08-3.89,5.08-8.19V18.78q0-6.36-5.08-8.15C1596.63,9.44,1595,8,1595,6.26a1.86,1.86,0,0,1,2.12-2.09h59.87a71.65,71.65,0,0,1,21.81,3.63,30.7,30.7,0,0,1,17.55,14.06q4.86,8.45,4.86,20.26a34.93,34.93,0,0,1-6.59,20.17,31.86,31.86,0,0,1-14.1,10.78,53.73,53.73,0,0,1-17.15,4.22l46.16,59.21ZM1623.36,12.42v58h23.53a53.52,53.52,0,0,0,14.21-2,28.14,28.14,0,0,0,12.37-7.05q8.1-7.65,8.12-20.27a27.11,27.11,0,0,0-8.42-20.27q-9-8.44-24.25-8.44Z"/></g></g></svg>