<svg xmlns="http://www.w3.org/2000/svg" viewBox="0 0 27.31 27.31"><defs><style>.cls-1{fill:none;}.cls-2{fill:#6c7e77;}</style></defs><title>Icon-Instagram</title><g id="Layer_2" data-name="Layer 2"><g id="Layer_1-2" data-name="Layer 1"><circle class="cls-1" cx="13.66" cy="13.66" r="13.66"/><path class="cls-2" d="M13.65,8.24c1.82,0,2,0,2.75,0a4,4,0,0,1,1.27.23A2.28,2.28,0,0,1,19,9.81a4.13,4.13,0,0,1,.23,1.26c0,.72,0,.93,0,2.75s0,2,0,2.75A4,4,0,0,1,19,17.84a2.27,2.27,0,0,1-1.29,1.29,3.66,3.66,0,0,1-1.27.23c-.71.05-.92.05-2.75.05s-2,0-2.75,0a4,4,0,0,1-1.27-.24,2.22,2.22,0,0,1-1.29-1.29,3.62,3.62,0,0,1-.23-1.27c0-.71,0-.93,0-2.75s0-2,0-2.75a3.4,3.4,0,0,1,.24-1.26A2.25,2.25,0,0,1,9.64,8.52a3.86,3.86,0,0,1,1.26-.24c.72,0,.94,0,2.76,0m0-1.22c-1.85,0-2.09,0-2.81,0a5.19,5.19,0,0,0-1.66.31,3.5,3.5,0,0,0-2,2A4.83,4.83,0,0,0,6.89,11c0,.73,0,1,0,2.81s0,2.08,0,2.81a4.92,4.92,0,0,0,.31,1.65,3.48,3.48,0,0,0,2,2,4.94,4.94,0,0,0,1.66.32c.72,0,1,0,2.81,0s2.08,0,2.8,0a4.94,4.94,0,0,0,1.66-.32,3.48,3.48,0,0,0,2-2,4.93,4.93,0,0,0,.32-1.65c0-.73,0-1,0-2.81s0-2.08,0-2.81a4.84,4.84,0,0,0-.32-1.65,3.5,3.5,0,0,0-2-2,5.18,5.18,0,0,0-1.65-.31c-.73,0-1,0-2.81,0Z"/><path class="cls-2" d="M13.65,10.33a3.5,3.5,0,1,0,3.5,3.49h0A3.5,3.5,0,0,0,13.65,10.33Zm0,5.75a2.27,2.27,0,1,1,2.28-2.26h0a2.27,2.27,0,0,1-2.27,2.27h0Z"/><circle class="cls-2" cx="17.29" cy="10.19" r="0.82"/></g></g></svg>