<svg xmlns="http://www.w3.org/2000/svg" viewBox="0 0 27.31 27.31"><defs><style>.cls-1{fill:none;}.cls-2{fill:#6c7e77;fill-rule:evenodd;}</style></defs><title>Icon-Pinterest</title><g id="Layer_2" data-name="Layer 2"><g id="Layer_1-2" data-name="Layer 1"><circle class="cls-1" cx="13.66" cy="13.66" r="13.66"/><path id="pinterest" class="cls-2" d="M13,16.39c-.12.49-.24,1-.37,1.51a12.85,12.85,0,0,1-.42,1.45A7.61,7.61,0,0,1,11,21.42c-.33.39-.26.24-.36.22s-.09-.1-.1-.21a10.69,10.69,0,0,1,0-2,10.82,10.82,0,0,1,.35-2c.28-1.22.55-2.41.84-3.63,0-.08.07-.21,0-.26a3.86,3.86,0,0,1-.25-1,3.27,3.27,0,0,1,.08-1.14A1.93,1.93,0,0,1,12.71,10a1.3,1.3,0,0,1,1,.08,1.11,1.11,0,0,1,.51.73A2.78,2.78,0,0,1,14.19,12c-.16.71-.36,1.25-.55,1.94A2.16,2.16,0,0,0,13.53,15a1.22,1.22,0,0,0,.5.75A1.47,1.47,0,0,0,15,16a2.09,2.09,0,0,0,1.56-.93,5.43,5.43,0,0,0,1-2.75,9.15,9.15,0,0,0,0-1.19,3.25,3.25,0,0,0-.67-1.83,3.13,3.13,0,0,0-1.47-1,5,5,0,0,0-2.21-.13,3.91,3.91,0,0,0-2.89,2.08,4.22,4.22,0,0,0-.49,2,2.56,2.56,0,0,0,.4,1.47c.08.12.19.22.27.35s0,.48-.07.69-.07.59-.36.6a.84.84,0,0,1-.38-.15A3,3,0,0,1,8.28,13a5.11,5.11,0,0,1,0-1.91,5.38,5.38,0,0,1,.55-1.51,5.46,5.46,0,0,1,2-2.1,6.14,6.14,0,0,1,2.3-.79c.3,0,.61-.06.94-.08a5.81,5.81,0,0,1,2.55.48A5.38,5.38,0,0,1,18.4,8.34a4.81,4.81,0,0,1,1.08,1.95,4.57,4.57,0,0,1,.23,1.34A8.36,8.36,0,0,1,19.53,13a5.47,5.47,0,0,1-2.26,3.8,3.78,3.78,0,0,1-1,.48,3.71,3.71,0,0,1-1.32.16,2.55,2.55,0,0,1-1.16-.34A2,2,0,0,1,13,16.39Z"/></g></g></svg>