<svg xmlns="http://www.w3.org/2000/svg" viewBox="0 0 1277.41 97.71"><defs><style>.cls-1{fill:#fff;}</style></defs><title>Tagline-Foudamour-White</title><g id="Layer_2" data-name="Layer 2"><g id="Layer_1-2" data-name="Layer 1"><path class="cls-1" d="M59.23,90.55a327.37,327.37,0,0,1-15.65-32A30.12,30.12,0,0,0,56.44,48.37q4.74-6.61,4.74-16.63T54.8,16.93q-6.36-4.78-16.93-4.79L21.36,13.35q-4.48,0-14.2-.85A11.51,11.51,0,0,0,6,17.72l9,2.19Q12.62,60.46,9.47,87.15a22.28,22.28,0,0,1-8.26,4.37A11.51,11.51,0,0,0,0,96.74l11.53-.85q4.49,0,17,.85a11.61,11.61,0,0,0,1.21-5.22L19.79,89.7l1.57-27.92H26.1a42.57,42.57,0,0,0,7.77-.6Q43,79.51,49.4,96.5q7.89,0,18.09.85a11.51,11.51,0,0,0,1.21-5.22l-9.47-1.58ZM47,48.49Q42.36,54,34.11,55.59H21.73Q22.83,40.9,25.25,20h16A11.61,11.61,0,0,1,49,25.67a18.71,18.71,0,0,1,2.73,9.77A19.58,19.58,0,0,1,47,48.49ZM95.47,84q-3.23-3.77-3.22-12.45a34.1,34.1,0,0,1,3.88-16.08q3.89-7.39,9-9.34h11.65l1,.24q2.31.6,5.34,4.13,3.4,4,3.4,13.59a32.38,32.38,0,0,1-3.88,15.17q-3.9,7.41-9,9.35H102l-1-.24C99.45,88,97.61,86.51,95.47,84Zm40.11-23.79q0-22.58-20.75-22.58a26.78,26.78,0,0,0-17.42,5.95A36,36,0,0,0,86.6,57.78a43.09,43.09,0,0,0-3.45,16.75q0,22.57,20.75,22.58a26.86,26.86,0,0,0,17.42-6A36,36,0,0,0,132.12,77a42.92,42.92,0,0,0,3.46-16.75Zm75.87.36-1.22-.73q1.46-14.07,1.58-17.36l-.36-1.21c-.33-.81-1.38-1.62-3.16-2.43a17.55,17.55,0,0,0-7.16-1.21q-15.42,0-25.49,22.94l-1.21-.73,2.3-17.36a5.8,5.8,0,0,0-1.33-3.94,4,4,0,0,0-3-1.52,50.42,50.42,0,0,1-13.47,3.89,11.49,11.49,0,0,0-1.22,5.22h8.86q-1.08,21.6-2.54,32.53t-3.4,19A38.78,38.78,0,0,0,172,95.89q1.58-10.44,2.79-25.49a82.09,82.09,0,0,1,9.65-16.93q5.52-7.35,10.25-7.34h7.41Q200.15,75.26,198,85.82q-.48,3.77-2.43,11.89A38.79,38.79,0,0,0,207,95.89q.72-5.1,2.06-22.94a106.4,106.4,0,0,1,10.92-18.33q6.31-8.49,10.56-8.49h7.41Q236,75.26,233.3,92.25a5.8,5.8,0,0,0,1.27,4.13,4.11,4.11,0,0,0,3.09,1.33,51,51,0,0,1,14.69-3.88,11.52,11.52,0,0,0,1.22-5.22h-9.71q1-22.69,3.76-46.13l-.49-1.21q-.36-1.22-3-2.43a17.55,17.55,0,0,0-7.16-1.21q-15.42,0-25.49,22.94Zm112.64,28q1.46-21.85,3-32.65a202.66,202.66,0,0,1,3.82-20.15,40,40,0,0,0-11.53,1.82c-.16.89-.32,2.06-.48,3.52q-5.72-3.52-10.2-3.52-13.83,0-23.18,11.65a42.3,42.3,0,0,0-9.35,27.31q0,9.47,5.1,15a16.46,16.46,0,0,0,12.62,5.53,14.58,14.58,0,0,0,12.14-6q4.61-6,9.11-16.93l1.21.72L314,92.25a5.8,5.8,0,0,0,1.28,4.13,4.11,4.11,0,0,0,3.09,1.33,51,51,0,0,1,14.69-3.88,11.51,11.51,0,0,0,1.21-5.22ZM289.67,55.53q4.32-8.55,9.05-9.4h19.42q-1.45,11.9-1.94,17-10.08,24.15-17.12,25.49h-5.82q-3-1.45-5.47-5.77a19.26,19.26,0,0,1-2.42-9.65,38.88,38.88,0,0,1,4.3-17.66Zm76.78-9.4q-1.09,21.6-2.55,32.53t-3.4,19a38.78,38.78,0,0,0,11.41-1.82q1.57-10.44,2.79-25.49a66.79,66.79,0,0,1,10.81-16.69q6.66-7.58,11.53-7.58h7.4q-1.94,29.13-4.61,46.12a5.8,5.8,0,0,0,1.27,4.13,4.12,4.12,0,0,0,3.1,1.33,50.92,50.92,0,0,1,14.69-3.88,11.64,11.64,0,0,0,1.21-5.22h-9.71q1-22.69,3.76-46.13l-.36-1.21c-.33-.81-1.38-1.62-3.16-2.43a17.55,17.55,0,0,0-7.16-1.21q-9.35,0-16.75,7.16a49.54,49.54,0,0,0-11.17,15.78l-1.21-.73,2.3-17.36a5.75,5.75,0,0,0-1.33-3.94,4,4,0,0,0-3-1.52,50.42,50.42,0,0,1-13.47,3.89,11.48,11.48,0,0,0-1.21,5.22Zm93.7,42.48-1-.24c-1.69-.41-3.56-1.78-5.58-4.13q-3.53-4.12-3.52-13.59a33.18,33.18,0,0,1,3.7-15.36q3.71-7.22,8.68-9.16h12.75A3,3,0,0,1,477,49.28a37.26,37.26,0,0,1-1.09,7.29,14.42,14.42,0,0,0,5.94-1.1l.61-2.06a42.8,42.8,0,0,1,4.13-10.93,23.7,23.7,0,0,0-5.53-3.15,20.58,20.58,0,0,0-8.43-1.7,27.11,27.11,0,0,0-17,5.7,35.05,35.05,0,0,0-11,14,46.39,46.39,0,0,0-3.58,18.64c0,6.91,1.76,12.18,5.28,15.77s8.76,5.41,15.72,5.41q5.58,0,18.45-3.28a11.64,11.64,0,0,0,1.21-5.22Zm67.25,0q-10-1.33-9.95-18,34.23-.74,34.23-22.58a10.62,10.62,0,0,0-2.79-7.41c-1.87-2-4.78-3-8.75-3a26.59,26.59,0,0,0-16.93,5.89,36.57,36.57,0,0,0-11.1,14.2,41.23,41.23,0,0,0-3.65,16.69q0,22.7,20.88,22.7,5.58,0,18.45-3.28A11.52,11.52,0,0,0,549,88.61Zm10.08-27.37q-5.72,3.59-19.67,4.06a36.48,36.48,0,0,1,3.88-12.2q2.92-5.39,6.92-7h11.17q3.4,1,3.4,5a11.33,11.33,0,0,1-5.7,10.14Zm65.18,28H590q-6.91-1.45-6.92-5.71a26.89,26.89,0,0,1,1.1-6.92,14.43,14.43,0,0,0-6,1.1l-.36,1.57a35.43,35.43,0,0,1-3.89,10l1.34,1.94c.88,1.29,2.85,2.61,5.88,3.94a27.14,27.14,0,0,0,11,2q10.56,0,16.75-5.16t6.19-14.63a9.15,9.15,0,0,0-2.61-6,25.06,25.06,0,0,0-5.16-4.61q-2.55-1.64-6.37-3.58c-2.55-1.29-4.51-2.37-5.89-3.22A21.7,21.7,0,0,1,591,56.5a6.14,6.14,0,0,1-2.06-4.18q0-6,5.83-6.8h11.77c1.78.57,2.67,2.14,2.67,4.73a40.94,40.94,0,0,1-1.09,6.32,14.43,14.43,0,0,0,6-1.1l.48-1.82a47.84,47.84,0,0,1,4.25-11.17,28.52,28.52,0,0,0-16.14-4.85,25.41,25.41,0,0,0-15,4.31q-6.13,4.31-6.13,12.44a11.39,11.39,0,0,0,4.12,9.1,37.78,37.78,0,0,0,3.83,2.92c1,.65,2.46,1.47,4.37,2.49s3.86,2.12,5.88,3.33c.41.25,1.14.71,2.19,1.4a14.46,14.46,0,0,1,2.24,1.7c.45.44,1.08,1.13,1.89,2.06a5.49,5.49,0,0,1,1.21,3.7,8.79,8.79,0,0,1-4.61,8.14ZM733.14,60.57l-1.21-.73q1.46-14.07,1.57-17.36l-.36-1.21c-.32-.81-1.38-1.62-3.15-2.43a17.57,17.57,0,0,0-7.17-1.21q-15.41,0-25.49,22.94l-1.21-.73,2.31-17.36a5.75,5.75,0,0,0-1.34-3.94,4,4,0,0,0-3-1.52,50.38,50.38,0,0,1-13.48,3.89,11.48,11.48,0,0,0-1.21,5.22h8.86q-1.1,21.6-2.55,32.53a190.76,190.76,0,0,1-3.4,19,38.72,38.72,0,0,0,11.41-1.82q1.57-10.44,2.79-25.49a82.09,82.09,0,0,1,9.65-16.93q5.54-7.35,10.26-7.34h7.41q-1.95,29.13-4.13,39.69-.49,3.77-2.43,11.89a38.78,38.78,0,0,0,11.41-1.82q.74-5.1,2.06-22.94a107.08,107.08,0,0,1,10.93-18.33q6.32-8.49,10.56-8.49h7.4Q757.67,75.26,755,92.25a5.85,5.85,0,0,0,1.27,4.13,4.13,4.13,0,0,0,3.1,1.33,50.92,50.92,0,0,1,14.69-3.88,11.51,11.51,0,0,0,1.21-5.22h-9.71q1-22.69,3.76-46.13l-.48-1.21c-.24-.81-1.26-1.62-3-2.43a17.55,17.55,0,0,0-7.16-1.21q-15.42,0-25.49,22.94ZM810.28,84q-3.22-3.77-3.22-12.45A34.11,34.11,0,0,1,811,55.47q3.88-7.39,9-9.34h11.65l1,.24q2.31.6,5.34,4.13,3.4,4,3.4,13.59a32.26,32.26,0,0,1-3.88,15.17q-3.88,7.41-9,9.35H816.77l-1-.24c-1.54-.41-3.38-1.86-5.52-4.37ZM850.4,60.21q0-22.58-20.76-22.58a26.8,26.8,0,0,0-17.42,5.95,35.9,35.9,0,0,0-10.8,14.2A42.92,42.92,0,0,0,798,74.53q0,22.57,20.75,22.58a26.84,26.84,0,0,0,17.42-6A36.09,36.09,0,0,0,846.94,77a43.1,43.1,0,0,0,3.46-16.75Zm67.72,28.4q3.17-49.28,7.17-83.15A5.74,5.74,0,0,0,924,1.52a4,4,0,0,0-3-1.52,50,50,0,0,1-13.48,3.88,11.52,11.52,0,0,0-1.21,5.23h9.35q-.62,14.55-2.43,32.28-6.07-3.75-10.56-3.76-13.85,0-23.19,11.65a42.35,42.35,0,0,0-9.34,27.31q0,9.47,5.1,15a16.44,16.44,0,0,0,12.62,5.53,14.59,14.59,0,0,0,12.14-6q4.61-6,9.1-16.93l1.22.72-2.31,17.36a5.8,5.8,0,0,0,1.27,4.13,4.12,4.12,0,0,0,3.1,1.33A50.92,50.92,0,0,1,927,93.83a11.64,11.64,0,0,0,1.21-5.22ZM883.59,55.53q4.3-8.55,9-9.4h19.91q-1.69,14.81-1.82,15.77Q900.4,87.16,893,88.61h-5.83q-3-1.45-5.46-5.77a19.27,19.27,0,0,1-2.43-9.65,38.9,38.9,0,0,1,4.31-17.66ZM970,88.61q-9.94-1.33-10-18,34.23-.74,34.23-22.58a10.57,10.57,0,0,0-2.79-7.41c-1.86-2-4.78-3-8.74-3a26.57,26.57,0,0,0-16.93,5.89,36.6,36.6,0,0,0-11.11,14.2A41.22,41.22,0,0,0,951,74.41q0,22.7,20.88,22.7,5.58,0,18.45-3.28a11.64,11.64,0,0,0,1.21-5.22ZM980,61.24q-5.71,3.59-19.66,4.06a36.25,36.25,0,0,1,3.88-12.2q2.91-5.39,6.92-7h11.17q3.39,1,3.39,5A11.33,11.33,0,0,1,980,61.24Zm44.91-15.11q-1.1,21.6-2.55,32.53a190.76,190.76,0,0,1-3.4,19,38.72,38.72,0,0,0,11.41-1.82q1.45-9.94,3-28.16A66.7,66.7,0,0,1,1042.78,53q5.71-6.85,8.38-6.85c1.53.48,2.3,1.86,2.3,4.12a40.94,40.94,0,0,1-1.09,6.32,14.43,14.43,0,0,0,6-1.1l.61-2.06a45.55,45.55,0,0,1,4.61-11.9l-.73-1a7.63,7.63,0,0,0-2.61-1.94,9,9,0,0,0-4.19-1q-5.94,0-12.32,6.61a47.12,47.12,0,0,0-9.4,13.54l-1.22-.73,2.07-14.57a5.75,5.75,0,0,0-1.34-3.94,4,4,0,0,0-3-1.52,50.38,50.38,0,0,1-13.48,3.89,11.48,11.48,0,0,0-1.21,5.22Zm65.3,0q-1.08,21.6-2.54,32.53t-3.4,19a38.78,38.78,0,0,0,11.41-1.82q1.57-10.44,2.79-25.49a67,67,0,0,1,10.8-16.69q6.69-7.58,11.53-7.58h7.41q-2,29.13-4.62,46.12a5.85,5.85,0,0,0,1.28,4.13,4.11,4.11,0,0,0,3.09,1.33,51.09,51.09,0,0,1,14.69-3.88,11.38,11.38,0,0,0,1.21-5.22h-9.7q.94-22.69,3.75-46.13l-.36-1.21q-.48-1.22-3.15-2.43a17.59,17.59,0,0,0-7.16-1.21q-9.36,0-16.76,7.16a49.66,49.66,0,0,0-11.16,15.78l-1.22-.73,2.31-17.36a5.8,5.8,0,0,0-1.33-3.94,4,4,0,0,0-3-1.52,50.42,50.42,0,0,1-13.47,3.89,11.49,11.49,0,0,0-1.22,5.22ZM1186,88.61q-10-1.33-10-18,34.23-.74,34.23-22.58a10.62,10.62,0,0,0-2.79-7.41c-1.86-2-4.78-3-8.73-3a26.58,26.58,0,0,0-16.94,5.89,36.48,36.48,0,0,0-11.1,14.2,41.07,41.07,0,0,0-3.65,16.69q0,22.7,20.87,22.7,5.6,0,18.46-3.28a11.64,11.64,0,0,0,1.21-5.22Zm10.06-27.37q-5.7,3.59-19.66,4.06a36.71,36.71,0,0,1,3.88-12.2q2.92-5.39,6.93-7h11.16q3.4,1,3.41,5a11.33,11.33,0,0,1-5.72,10.14Zm65.19,28h-12.62q-6.93-1.45-6.93-5.71a26.46,26.46,0,0,1,1.1-6.92,14.5,14.5,0,0,0-6,1.1l-.36,1.57a35.43,35.43,0,0,1-3.89,10l1.33,1.94c.9,1.29,2.87,2.61,5.9,3.94a27.05,27.05,0,0,0,11,2q10.55,0,16.75-5.16t6.19-14.63a9.19,9.19,0,0,0-2.6-6A25.09,25.09,0,0,0,1266,66.7c-1.7-1.09-3.83-2.28-6.37-3.58s-4.51-2.37-5.88-3.22a21.1,21.1,0,0,1-4.13-3.4,6.08,6.08,0,0,1-2.07-4.18c0-4,2-6.23,5.82-6.8h11.78c1.78.57,2.67,2.14,2.67,4.73a41.73,41.73,0,0,1-1.08,6.32,14.5,14.5,0,0,0,6-1.1l.48-1.82a47.38,47.38,0,0,1,4.24-11.17,28.52,28.52,0,0,0-16.14-4.85q-8.87,0-15,4.31t-6.14,12.44a11.4,11.4,0,0,0,4.13,9.1,36.69,36.69,0,0,0,3.83,2.92c1,.65,2.45,1.47,4.36,2.49s3.86,2.12,5.88,3.33c.41.25,1.14.71,2.2,1.4a15,15,0,0,1,2.24,1.7c.45.44,1.08,1.13,1.87,2.06a5.45,5.45,0,0,1,1.23,3.7,8.8,8.8,0,0,1-4.62,8.14Z"/></g></g></svg>